<svg xmlns="http://www.w3.org/2000/svg" xmlns:xlink="http://www.w3.org/1999/xlink" version="1.1" x="0px" y="0px" viewBox="14 35 70 28" style="enable-background:new 0 0 100 100;" xml:space="preserve"><path style="fill: #e600a8;" d="M57.6699867,55.5295639c-1.0270309-0.8350677-0.7260246-5.6214561-0.7260246-5.6214561  c0.1306343-2.9382782,0.5716629-8.4237328-0.3625145-8.6100616C55.21875,41.078125,53.0237999,48.423851,52.2027245,51.388134  c-0.3711472,1.338913-0.6916618,2.4957352-0.9768524,3.2893219c-0.1193085,0.3317413-0.4042511,0.5759583-0.7497635,0.6434669  c-0.3474808,0.067112-0.7022133-0.0526543-0.9366417-0.3150558c-0.2714157-0.3032951-0.7520676-0.8407784-0.8850021-10.4306374  c-1.5503654,3.240284-3.7858162,8.3596916-5.0436058,11.8842545c-0.16539,0.4618263-0.6420937,0.7355042-1.1225204,0.6471748  c-0.4823761-0.0882378-0.8290482-0.51334-0.8193512-1.0034981c0,0,1.3466377-14.0406609,0.1785774-14.2477264  c-1.2538147-0.1991844-4.9923553,8.7637482-6.2649612,12.2625732c-1.1775856,3.2370644-1.3142014,3.6531448-2.2108459,3.6359329  c-0.4711113-0.0100479-0.8711014-0.347271-0.9608612-0.8095894c-0.922924-4.7652817-0.6671486-9.5678024-0.1515083-14.284996  c-2.18643,4.0571442-4.1375141,9.6185722-5.3234615,12.9987221c-1.0856361,3.0942116-1.3549519,3.5992126-2.0609264,3.5992126  c-1.041666,0-1.070755-0.8073769-1.070755-0.8073769c-0.2655449-5.1314697-0.4664593-10.3268776-0.5995502-15.4915504  c-2.3918304,4.5427208-4.0852509,9.3958397-5.0455437,14.470829c-0.1031799,0.5426636-0.6275806,0.8985977-1.1687145,0.796814  c-0.5426617-0.1031799-0.8995056-0.6260757-0.796814-1.1687164c1.228447-6.4885445,3.6101036-12.6275787,7.0781918-18.246521  c0.2336063-0.3778305,0.6881771-0.5547371,1.1145535-0.4395905c0.427927,0.1170273,0.7278519,0.501667,0.7361355,0.9450912  c0.0926056,4.7114258,0.243391,9.4676971,0.4491138,14.1951599c1.7059135-4.8135948,4.4589996-12.1630096,7.4330368-15.5935478  c0.288372-0.3328323,0.7602882-0.4376793,1.1636047-0.2579842c0.402317,0.1792526,0.6393776,0.6013641,0.5843277,1.0382881  c-0.592144,4.6780396-1.2002563,9.4819031-0.8559494,14.2042389c1.4080849-3.8630447,3.4589081-9.3237839,5.837265-11.8859711  c1.0173073-1.0941505,2.2315865-1.4222984,3.1665421-0.856926c1.0779762,0.6499863,1.050457,2.0118904,1.040287,2.5245514  l-0.1605453,7.9419975c1.8946571-4.5452652,4.4779167-10.2904472,5.3960838-10.7057495  c0.2472839-0.1115723,0.5640221-0.122097,0.8162384-0.0217705c0.3795433,0.150444,0.6293221,0.5172501,0.6306915,0.9257889  c0.0115013,3.1470718,0.0659447,6.0151291,0.1492958,8.2631531c1.6048851-5.5872421,3.1652107-9.6779099,5.7784042-9.7929764  c0.0009727-0.000042,0.001461-0.0000648,0.0024376-0.0001068c0.5336609-0.0234985,1.0195961,0.1677094,1.4050598,0.552494  c1.3067894,1.3065681,1.2248955,4.7079964,0.9835777,10.149662c-0.0448456,1.0127182-0.0899467,2.0308266-0.1176338,3.0115089  c-0.0145988,0.5231209-0.0288963,1.0486641,0.2251854,1.0736504C60.125,54.1875,63.84375,48.109375,67.8806686,47.9289818  c1.6619186-0.1647682,6.4049072-0.227047,9.8422928,0.2011337c-0.6897888-0.5917511-1.307457-1.2258987-2.1987762-2.1461945  l-0.6461182-0.6655807c-0.3849564-0.3955574-0.3766785-1.0288582,0.0188599-1.4143105  c0.396019-0.3854675,0.9815063-0.355011,1.4143066,0.018856c0,0,2.7122955,2.7869186,5.636055,4.7224579  c0.3920441,0.2595367,0.4873199,0.5225258,0.4776611,0.8802299c-0.0101547,0.3577271-0.2099152,0.6827469-0.5249939,0.8530235  c0,0-5.1655807,3.0120277-6.1794968,3.8365898c0,0-0.767334,0.5348129-1.398674-0.2077141  c-0.4084854-0.480423-0.2362518-1.0697441,0.2077179-1.398674c1.8007278-1.335331,2.5510178-1.8571243,3.5194626-2.4153442  c-3.2486649-0.4740028-7.8461151-0.4930267-9.9653168-0.2744026c-1.9827728,0.2021637-4.1376991,2.3664398-5.7118034,3.9464912  C62.3718452,53.8655434,59.59375,57.09375,57.6699867,55.5295639z"/></svg>