<?xml version="1.0" standalone="no"?>
<!DOCTYPE svg PUBLIC "-//W3C//DTD SVG 20010904//EN"
 "http://www.w3.org/TR/2001/REC-SVG-20010904/DTD/svg10.dtd">
<svg version="1.0" xmlns="http://www.w3.org/2000/svg"
 width="2240.000000pt" height="2240.000000pt" viewBox="0 0 2240.000000 2240.000000"
 preserveAspectRatio="xMidYMid meet">
<metadata>
Created by potrace 1.11, written by Peter Selinger 2001-2013
</metadata>
<g transform="translate(0.000000,2240.000000) scale(0.100000,-0.100000)"
fill="#000000" stroke="none">
<path d="M6260 14849 c-61 -11 -109 -38 -158 -87 -57 -57 -132 -141 -132 -149
0 -5 -96 -130 -110 -143 -3 -3 -9 -13 -15 -22 -5 -9 -39 -58 -75 -110 -36 -51
-95 -140 -132 -198 -37 -58 -72 -110 -77 -117 -6 -7 -11 -14 -11 -16 0 -6
-106 -188 -117 -202 -5 -5 -14 -21 -20 -35 -7 -14 -27 -50 -44 -80 -18 -30
-52 -93 -77 -140 -24 -47 -48 -89 -52 -95 -11 -13 -225 -442 -290 -580 -54
-113 -73 -157 -70 -164 1 -2 -2 -7 -7 -10 -5 -3 -33 -60 -63 -126 -29 -66 -62
-140 -74 -165 -11 -25 -21 -47 -21 -50 -2 -6 -16 -38 -50 -115 -15 -33 -33
-76 -42 -95 -8 -19 -22 -48 -31 -65 -9 -16 -16 -32 -15 -35 1 -7 -12 -41 -38
-97 -12 -26 -22 -52 -23 -58 -2 -5 -10 -28 -20 -50 -10 -22 -27 -62 -38 -90
-11 -27 -26 -63 -33 -80 -7 -16 -39 -95 -70 -175 -32 -80 -63 -158 -70 -175
-8 -16 -25 -61 -40 -100 -43 -115 -86 -229 -96 -250 -5 -11 -20 -51 -34 -90
-14 -38 -29 -77 -32 -85 -3 -8 -7 -19 -9 -25 -4 -14 -106 -287 -124 -330 -4
-11 -15 -42 -25 -70 -9 -27 -21 -59 -26 -70 -6 -12 -11 -27 -12 -35 -2 -8 -19
-58 -39 -110 -20 -52 -39 -106 -43 -120 -4 -14 -13 -38 -20 -55 -7 -16 -26
-66 -41 -110 -33 -97 -44 -112 -45 -60 0 22 -2 81 -4 130 -3 50 -7 149 -9 222
-2 73 -8 138 -12 144 -5 8 -3 9 6 4 9 -6 11 -4 5 4 -4 7 -9 65 -11 129 -2 65
-6 167 -8 227 -3 61 -7 187 -11 280 -3 94 -8 220 -10 280 -3 61 -7 189 -10
285 -4 96 -8 231 -11 300 -6 199 -15 505 -18 630 -1 64 -5 121 -9 127 -4 7 -3
14 3 18 6 4 7 11 4 17 -4 6 -8 81 -10 167 -2 150 -8 389 -19 801 -3 107 -7
305 -10 440 -7 329 -9 350 -39 411 -39 81 -133 158 -212 173 -108 21 -209 -5
-288 -75 -46 -40 -396 -613 -396 -648 0 -6 -3 -11 -8 -11 -4 0 -22 -28 -40
-62 -19 -35 -45 -85 -60 -113 -14 -27 -31 -53 -37 -57 -5 -4 -6 -8 -2 -8 5 0
0 -12 -10 -27 -10 -16 -28 -46 -38 -68 -11 -22 -24 -43 -28 -46 -5 -3 -9 -12
-10 -20 -2 -8 -19 -43 -39 -79 -53 -96 -333 -658 -343 -690 -4 -13 -27 -63
-69 -154 -26 -54 -76 -166 -112 -250 -36 -83 -73 -167 -82 -186 -8 -19 -16
-37 -17 -40 -11 -33 -20 -53 -41 -98 -13 -29 -24 -56 -24 -61 0 -5 -8 -26 -17
-47 -9 -22 -17 -41 -18 -44 -1 -3 -7 -18 -14 -35 -66 -162 -180 -463 -183
-483 -2 -9 -5 -19 -8 -22 -3 -3 -18 -43 -34 -90 -15 -47 -32 -91 -38 -97 -6
-7 -8 -13 -4 -13 3 0 0 -16 -8 -35 -8 -19 -12 -35 -9 -35 3 0 0 -6 -6 -14 -7
-8 -13 -22 -15 -32 -2 -11 -21 -68 -41 -129 -21 -60 -38 -114 -40 -120 -1 -5
-5 -17 -8 -25 -9 -24 -51 -154 -53 -165 -1 -5 -20 -71 -43 -145 -23 -74 -44
-143 -46 -153 -2 -10 -7 -27 -10 -37 -3 -10 -8 -27 -10 -37 -3 -10 -14 -49
-25 -88 -20 -67 -25 -84 -34 -122 -3 -10 -23 -88 -46 -173 -22 -85 -43 -164
-45 -175 -9 -38 -14 -61 -35 -145 -12 -47 -23 -94 -25 -105 -2 -11 -11 -49
-20 -85 -9 -36 -18 -74 -20 -85 -2 -11 -15 -76 -30 -145 -33 -153 -34 -158
-40 -195 -3 -16 -8 -37 -10 -45 -2 -8 -7 -28 -10 -45 -2 -16 -7 -40 -9 -51
-25 -123 -24 -171 4 -245 18 -50 120 -181 120 -155 0 5 8 2 18 -6 41 -35 161
-54 237 -36 39 9 121 57 152 90 52 55 72 98 89 193 3 17 10 50 15 75 6 25 13
56 15 70 2 14 7 36 10 50 3 14 8 39 11 55 2 17 10 55 18 85 11 47 23 103 31
145 1 6 3 12 4 15 3 9 8 34 15 75 4 22 11 48 16 58 5 9 8 17 5 17 -2 0 2 24
10 53 8 28 16 64 19 79 3 15 9 38 15 52 5 15 8 26 5 26 -2 0 5 30 16 68 11 37
22 80 25 96 2 16 9 37 15 47 5 11 8 19 5 19 -4 0 21 99 43 168 5 18 10 33 9
35 -1 6 56 209 70 247 3 8 7 24 9 35 6 28 9 38 16 55 3 8 20 62 37 120 17 58
43 139 57 180 13 41 26 82 28 90 2 8 10 35 19 60 9 25 19 52 21 60 3 13 70
205 160 460 14 41 33 89 41 107 7 17 14 37 14 45 0 8 4 18 9 24 4 5 16 34 27
64 10 30 22 59 26 65 4 5 8 17 8 27 0 10 5 18 12 18 6 0 9 3 6 6 -5 5 11 49
55 154 6 14 11 27 12 30 9 25 18 50 30 75 23 49 48 109 50 121 2 6 17 41 34
78 17 37 31 70 31 72 0 3 14 34 30 70 31 64 52 114 54 124 1 3 15 32 31 65 16
33 29 63 30 66 0 3 10 25 22 50 59 120 232 480 234 487 1 4 10 19 20 34 10 14
19 33 19 41 0 8 7 20 15 27 8 7 15 21 15 31 0 11 4 19 9 19 5 0 18 21 29 48
13 30 23 42 26 32 3 -8 7 -129 10 -268 2 -140 7 -256 10 -259 3 -3 1 -14 -5
-24 -5 -11 -6 -19 -2 -19 7 0 12 -126 16 -447 1 -73 5 -133 9 -133 4 0 3 -11
-2 -24 -5 -13 -6 -26 -3 -29 2 -3 7 -68 9 -144 2 -76 6 -201 9 -278 3 -77 7
-205 10 -285 5 -154 11 -311 21 -555 3 -82 7 -196 7 -252 1 -57 4 -103 7 -103
3 0 6 -46 6 -103 2 -100 7 -232 20 -532 4 -82 8 -196 8 -252 1 -57 3 -103 6
-103 3 0 5 -17 6 -38 1 -40 12 -281 19 -432 2 -52 6 -143 9 -202 3 -59 7 -112
11 -118 3 -5 1 -10 -5 -10 -6 0 -8 -5 -4 -11 4 -6 8 -48 10 -93 5 -148 13
-241 24 -275 41 -143 199 -224 380 -196 30 4 58 8 62 7 17 -4 112 97 152 161
40 64 60 104 126 252 22 48 58 141 100 255 17 47 35 94 40 105 4 11 24 65 43
120 19 55 54 152 77 215 23 63 43 122 45 130 5 18 72 209 82 230 3 8 7 17 8
20 18 64 42 127 50 132 5 4 7 8 3 8 -5 0 34 120 59 180 3 8 7 17 7 20 1 3 9
25 18 50 9 25 37 104 63 175 40 111 94 259 121 330 4 11 8 25 10 30 3 12 71
192 84 220 4 11 27 72 50 135 23 63 49 131 58 150 8 19 16 40 17 46 2 6 20 54
40 105 20 52 57 144 80 204 24 61 51 128 61 150 10 22 19 43 20 48 1 4 3 9 4
12 1 3 3 8 4 13 2 4 8 21 16 37 43 98 50 115 50 120 0 3 19 50 41 103 66 156
79 185 95 215 8 16 14 33 14 38 0 5 13 36 29 68 16 33 26 62 23 65 -3 4 0 6 6
6 7 0 12 7 12 15 0 8 15 47 34 87 33 70 81 175 113 248 80 177 245 515 255
518 4 2 8 10 8 18 0 7 10 30 21 51 12 21 39 71 60 112 21 41 41 77 44 79 5 6
-2 -109 -10 -156 -2 -13 -7 -53 -10 -90 -3 -37 -8 -83 -11 -102 -3 -19 -7 -64
-9 -100 -3 -36 -7 -85 -10 -110 -3 -25 -7 -76 -10 -115 -7 -85 -13 -134 -21
-146 -3 -5 0 -9 6 -9 6 0 8 -5 5 -10 -3 -6 -8 -36 -10 -68 -2 -31 -6 -86 -9
-122 -19 -243 -30 -447 -42 -760 -9 -246 -10 -935 -2 -947 5 -6 4 -14 -2 -18
-6 -3 -8 -11 -4 -16 3 -6 8 -56 10 -112 5 -154 13 -315 19 -382 3 -33 7 -89
10 -125 3 -36 8 -90 11 -120 2 -30 6 -71 8 -91 1 -19 6 -41 10 -47 4 -7 2 -12
-4 -12 -6 0 -9 -4 -6 -9 9 -13 15 -58 31 -231 3 -30 8 -62 10 -70 2 -8 7 -37
10 -65 4 -27 8 -61 10 -75 14 -87 17 -105 21 -123 2 -12 6 -39 9 -62 7 -49 42
-242 49 -270 24 -91 118 -203 186 -220 3 -1 12 -4 20 -7 44 -17 102 -23 160
-16 36 5 70 9 77 10 43 5 192 160 193 201 0 9 4 17 8 17 4 0 16 23 27 50 11
28 23 50 27 50 4 0 8 8 8 18 0 9 14 44 30 77 16 33 30 66 30 73 0 7 4 20 9 30
12 22 48 115 101 262 23 63 46 124 50 135 10 24 21 59 21 62 0 2 9 24 20 50
12 27 22 55 24 63 3 14 96 265 118 320 6 14 11 27 11 30 3 10 80 207 106 272
16 36 26 69 23 72 -4 3 -1 6 5 6 7 0 12 7 12 16 0 9 6 30 14 47 7 18 28 68 46
112 18 44 41 99 51 122 11 24 19 50 19 58 0 8 5 15 10 15 6 0 10 7 10 16 0 9
6 30 14 47 41 90 126 294 126 300 0 4 14 35 30 69 17 34 30 65 30 69 0 5 12
34 26 66 15 32 35 76 44 98 10 22 30 66 44 98 14 32 26 59 26 62 0 2 16 39 36
82 20 43 43 94 51 113 9 19 28 62 43 95 15 33 34 76 43 95 8 19 41 89 72 155
31 66 57 121 57 122 -1 4 272 543 313 618 20 39 56 102 78 140 22 39 51 90 65
115 26 46 195 301 235 355 12 16 52 60 88 97 98 100 176 127 220 77 32 -37 69
-181 85 -329 12 -115 14 -139 18 -279 3 -79 6 -145 8 -146 8 -8 -5 -785 -17
-1045 -3 -58 -7 -151 -9 -208 -7 -167 -16 -333 -21 -402 -3 -36 -7 -110 -10
-165 -7 -118 -12 -199 -20 -315 -3 -47 -8 -119 -10 -160 -5 -71 -10 -142 -20
-255 -2 -27 -7 -90 -11 -140 -3 -49 -7 -110 -9 -135 -5 -75 -16 -213 -20 -250
-2 -19 -7 -73 -10 -120 -4 -47 -8 -101 -10 -120 -2 -19 -5 -54 -6 -77 -1 -23
-6 -40 -11 -37 -4 3 -4 -6 1 -19 6 -14 8 -27 6 -29 -4 -3 -6 -21 -21 -183 -10
-98 -11 -168 -5 -180 3 -5 7 -21 9 -34 4 -33 47 -103 85 -141 17 -17 56 -43
87 -58 75 -37 190 -38 265 -2 101 49 141 103 200 265 19 55 38 107 42 115 3 8
7 18 8 23 2 4 4 9 5 12 1 3 3 8 5 13 1 4 7 21 14 37 6 17 23 62 38 100 33 91
91 242 107 280 7 17 23 57 36 90 12 33 26 69 31 80 27 63 127 314 151 380 6
17 18 41 27 55 9 13 15 24 13 25 -4 0 6 28 34 93 13 28 20 52 17 52 -3 0 1 7
8 16 7 9 14 21 15 28 2 9 191 458 228 541 8 17 34 77 59 135 25 58 56 128 68
155 12 28 23 52 24 55 4 11 38 89 65 147 15 34 26 64 22 67 -3 3 0 6 6 6 7 0
12 5 12 11 0 6 14 40 30 76 17 35 30 66 30 68 0 2 15 36 34 77 83 180 104 228
100 228 -3 0 2 7 10 16 9 8 16 24 16 33 0 10 7 24 15 31 8 7 15 18 15 25 0 8
24 64 54 127 29 62 60 129 69 148 8 19 39 85 68 145 29 61 53 112 54 115 5 22
46 102 51 98 2 -3 6 -127 8 -276 2 -148 6 -275 10 -280 3 -6 2 -13 -4 -17 -6
-4 -8 -10 -5 -15 3 -5 8 -105 10 -222 3 -117 7 -276 10 -353 17 -488 21 -570
41 -905 3 -52 7 -126 9 -165 2 -38 4 -70 5 -70 1 0 3 -20 5 -45 10 -159 16
-229 21 -260 3 -19 7 -55 9 -80 3 -25 7 -58 10 -75 3 -16 8 -52 11 -80 25
-209 71 -378 120 -442 73 -96 153 -137 264 -137 60 0 86 5 133 27 101 46 149
111 197 262 12 39 25 79 30 90 5 11 15 40 21 65 15 54 14 51 22 70 5 13 60
202 72 250 2 8 11 40 20 70 9 30 27 93 40 140 13 47 49 175 80 285 31 110 57
205 58 210 2 6 6 16 10 23 5 6 6 12 4 12 -3 0 2 21 10 48 17 54 42 140 47 162
6 24 96 321 113 370 8 25 16 52 18 60 5 21 71 230 83 260 5 14 10 28 10 33 0
4 15 51 33 105 18 53 34 99 34 102 3 21 60 178 68 188 5 6 7 12 3 12 -3 0 3
24 14 53 10 28 40 111 65 182 25 72 51 141 57 155 6 14 12 28 14 33 1 4 3 9 4
12 1 3 4 10 5 15 1 6 4 12 5 15 1 3 3 8 5 13 1 4 7 21 14 37 7 17 24 59 38 95
14 36 34 84 44 107 11 23 19 44 19 47 0 2 14 35 32 73 17 37 32 70 33 73 21
78 265 530 286 530 4 0 10 8 13 18 9 27 115 136 157 160 43 26 96 34 124 19
53 -27 97 -119 120 -252 49 -283 58 -719 30 -1420 -4 -99 -9 -198 -10 -220 -7
-136 -18 -347 -19 -390 -1 -28 -5 -56 -9 -62 -4 -6 -3 -14 2 -18 6 -3 7 -15 1
-29 -5 -15 -5 -27 3 -35 6 -6 7 -11 1 -11 -5 0 -10 -19 -10 -43 -1 -23 -5
-103 -9 -177 -9 -162 -15 -981 -7 -994 2 -5 6 -38 8 -75 5 -116 27 -299 46
-381 5 -25 12 -60 14 -79 2 -18 9 -42 14 -52 6 -10 9 -22 8 -26 -4 -13 33
-114 61 -168 57 -111 196 -208 346 -241 43 -9 207 -12 225 -3 8 4 31 9 50 12
60 10 62 10 190 58 43 16 175 85 212 110 14 11 29 19 33 19 5 0 51 32 110 77
6 5 28 21 50 38 22 16 45 36 52 45 7 8 13 12 13 9 0 -11 127 110 426 408 166
167 305 303 307 303 3 0 29 24 59 53 30 28 79 72 108 97 29 25 65 56 80 70 15
14 46 41 70 60 24 19 62 50 84 68 23 18 48 39 56 45 121 97 316 222 465 297
122 63 154 76 198 86 10 2 31 11 48 19 16 9 29 13 29 11 0 -3 12 -1 26 5 24 9
65 17 119 25 11 1 20 3 20 4 0 1 18 3 39 5 21 2 71 6 110 9 91 8 186 15 306
22 173 11 1194 12 1208 1 8 -6 12 -6 12 2 0 7 4 10 9 7 5 -3 73 -8 152 -11
157 -6 255 -11 394 -20 191 -11 213 -13 420 -31 22 -2 65 -5 95 -8 30 -2 78
-7 105 -11 28 -3 77 -8 110 -12 64 -6 65 -6 135 -17 38 -6 72 -10 124 -15 12
-1 -81 -61 -94 -61 -6 0 -10 -4 -10 -9 0 -5 -8 -11 -17 -14 -20 -6 -72 -37
-88 -52 -7 -5 -28 -19 -48 -30 -20 -11 -37 -23 -37 -27 0 -5 -7 -8 -15 -8 -8
0 -15 -4 -15 -10 0 -5 -4 -10 -10 -10 -8 0 -97 -56 -110 -70 -3 -3 -41 -30
-85 -59 -44 -30 -81 -58 -83 -62 -2 -5 -8 -9 -12 -9 -5 0 -40 -23 -77 -50 -37
-28 -77 -57 -88 -65 -96 -68 -132 -96 -147 -109 -10 -9 -22 -16 -27 -16 -5 0
-11 -3 -13 -8 -1 -4 -28 -25 -58 -47 -166 -118 -214 -189 -215 -315 0 -88 23
-145 85 -209 92 -94 180 -123 308 -99 34 6 62 15 62 19 0 4 11 10 25 13 23 6
37 15 79 51 27 23 76 55 85 55 5 0 11 4 13 9 3 9 147 107 161 109 4 1 14 7 22
14 24 22 39 32 75 52 19 11 40 24 45 28 6 5 44 29 85 55 41 25 87 54 102 64
15 11 29 19 32 19 3 0 24 13 48 29 24 16 104 66 178 111 313 191 430 260 439
260 5 0 11 4 13 8 2 5 75 50 163 102 88 51 172 102 188 113 15 10 27 15 27 10
0 -4 4 -3 8 3 4 6 30 23 57 39 28 16 58 35 68 43 9 8 17 12 17 8 0 -3 19 7 41
24 23 16 45 27 50 24 5 -3 9 -1 9 5 0 5 8 12 18 15 32 11 101 88 127 143 30
62 39 171 20 227 -7 20 -10 36 -8 36 7 0 -46 69 -72 95 -11 11 -69 54 -130 95
-60 40 -111 77 -113 82 -2 4 -10 8 -18 8 -8 0 -14 3 -14 8 0 4 -21 20 -48 37
-26 16 -49 32 -52 35 -3 3 -23 19 -45 36 -22 16 -46 34 -55 41 -8 6 -60 47
-115 89 -55 43 -101 81 -103 86 -2 4 -10 8 -17 8 -7 0 -15 4 -17 8 -1 4 -48
44 -103 89 -55 44 -110 90 -122 102 -12 12 -24 21 -27 21 -5 0 -67 53 -118
102 -15 14 -28 25 -28 23 0 -2 -10 6 -23 18 -12 12 -53 49 -91 82 -74 65 -85
75 -232 211 -129 119 -175 163 -314 299 -126 123 -184 159 -267 167 -13 1 -23
6 -23 11 0 4 -5 5 -11 2 -5 -4 -30 -9 -55 -11 -25 -2 -64 -12 -88 -22 -56 -25
-145 -113 -154 -153 -2 -7 -7 -16 -10 -19 -18 -13 -24 -157 -9 -207 19 -63 54
-110 181 -242 142 -146 673 -677 708 -706 13 -11 41 -35 62 -53 l39 -34 -47 6
c-62 8 -120 14 -186 21 -30 3 -82 8 -115 11 -33 3 -82 7 -110 9 -64 4 -201 14
-285 20 -61 5 -156 10 -365 20 -460 22 -1427 22 -1740 0 -38 -3 -106 -7 -150
-10 -84 -6 -141 -10 -240 -21 -99 -10 -119 -13 -152 -23 -17 -5 -34 -7 -37 -3
-3 3 -6 0 -6 -7 0 -7 -4 -10 -9 -7 -5 3 -35 -3 -67 -14 -33 -12 -61 -21 -64
-22 -96 -18 -513 -231 -578 -294 -6 -7 -21 -16 -32 -19 -11 -3 -20 -11 -20
-16 0 -5 -5 -9 -10 -9 -6 0 -34 -18 -63 -40 -29 -22 -65 -51 -81 -63 -66 -49
-215 -172 -280 -230 -199 -178 -312 -289 -816 -803 -300 -307 -402 -389 -505
-410 -29 -6 -62 21 -76 63 -19 54 -17 420 6 853 3 47 7 148 10 225 2 77 5 140
5 140 1 0 3 50 5 110 2 61 4 110 5 110 1 0 6 122 14 335 2 69 7 224 12 345 14
415 9 1092 -11 1315 -8 93 -17 179 -22 215 -2 22 -6 54 -8 70 -4 36 -23 135
-36 190 -5 22 -12 51 -15 65 -8 37 -12 55 -14 55 -1 0 -3 7 -5 16 -9 47 -61
181 -97 248 -92 174 -206 282 -362 342 -67 26 -115 33 -206 31 -134 -2 -209
-18 -320 -69 -83 -37 -200 -110 -200 -124 0 -5 -5 -9 -10 -9 -10 0 -44 -28
-109 -90 -14 -14 -51 -55 -81 -90 -30 -36 -58 -67 -62 -70 -8 -6 -39 -51 -115
-165 -29 -44 -56 -85 -60 -91 -5 -5 -13 -19 -19 -30 -6 -10 -24 -41 -39 -69
-42 -73 -157 -302 -182 -360 -12 -27 -32 -72 -44 -100 -13 -27 -24 -52 -24
-55 0 -3 -8 -21 -16 -40 -51 -113 -139 -338 -139 -354 0 -6 -6 -23 -14 -37 -7
-15 -21 -51 -31 -80 -9 -30 -20 -63 -25 -74 -4 -11 -13 -33 -18 -50 -6 -16
-14 -39 -18 -50 -10 -27 -9 -26 -19 -60 -4 -16 -10 -34 -14 -40 -3 -5 -6 -13
-7 -17 -1 -5 -3 -10 -4 -13 -1 -3 -3 -8 -4 -12 -1 -5 -15 -48 -31 -98 -16 -49
-30 -94 -31 -100 -1 -5 -10 -32 -19 -60 -18 -52 -64 -199 -70 -225 -5 -23 -45
-153 -52 -170 -3 -8 -7 -19 -8 -25 -2 -5 -13 -43 -25 -84 -12 -41 -23 -81 -26
-90 -9 -41 -32 -115 -34 -111 -4 12 -15 326 -25 745 -4 137 -8 252 -10 254 -3
2 0 12 6 22 5 11 6 19 2 19 -8 0 -9 41 -16 801 -2 235 -7 432 -11 438 -4 6 -3
11 1 11 9 0 8 113 -1 135 -2 7 -1 17 3 24 5 7 5 30 1 52 -4 21 -4 39 1 39 5 0
6 6 4 13 -3 6 -6 44 -8 83 -8 148 -99 260 -247 301 -37 11 -144 3 -187 -13
-60 -22 -109 -67 -184 -169 -33 -44 -63 -84 -67 -90 -18 -23 -118 -191 -166
-280 -6 -11 -13 -22 -16 -25 -6 -6 -24 -39 -117 -220 -41 -80 -79 -149 -83
-155 -4 -5 -11 -21 -15 -35 -4 -14 -14 -32 -22 -42 -8 -9 -16 -22 -17 -30 -1
-7 -30 -68 -64 -135 -34 -68 -58 -123 -55 -123 3 0 0 -8 -8 -17 -14 -18 -19
-28 -82 -163 -20 -41 -52 -111 -73 -155 -20 -44 -36 -83 -36 -87 1 -5 -3 -8
-8 -8 -6 0 -10 -6 -10 -13 0 -7 -8 -31 -19 -53 -10 -21 -29 -61 -41 -89 -13
-27 -36 -78 -51 -113 -16 -34 -29 -64 -28 -67 0 -3 -11 -27 -25 -53 -28 -55
-40 -84 -38 -94 1 -5 -3 -8 -8 -8 -6 0 -10 -6 -10 -13 0 -8 -6 -27 -14 -43
-21 -43 -177 -397 -180 -409 -3 -12 -41 -98 -62 -139 -8 -16 -14 -33 -14 -37
0 -5 -11 -32 -24 -61 -22 -49 -83 -187 -109 -248 -5 -14 -11 -29 -12 -35 -2
-5 -13 -32 -25 -60 -38 -83 -58 -129 -63 -145 -3 -8 -4 104 -1 249 2 146 6
267 9 269 2 2 0 15 -5 28 -5 13 -6 24 -2 24 4 0 8 75 9 168 4 395 11 701 17
710 3 6 2 13 -4 17 -6 4 -8 11 -4 16 13 22 25 1212 12 1304 -19 143 -60 259
-131 365 -34 52 -137 151 -176 171 -14 8 -28 17 -31 20 -15 17 -141 59 -200
66 -116 15 -237 3 -333 -33 -23 -9 -58 -23 -77 -32 -19 -9 -37 -17 -40 -17 -3
0 -23 -12 -45 -26 -22 -14 -50 -31 -62 -37 -12 -7 -27 -18 -35 -24 -7 -7 -30
-25 -50 -41 -73 -54 -211 -199 -303 -318 -27 -35 -53 -68 -57 -74 -51 -64
-108 -146 -108 -155 0 -5 -5 -10 -10 -10 -6 0 -16 -12 -22 -27 -11 -24 -32
-56 -68 -100 -6 -7 -10 -14 -10 -17 0 -2 -34 -59 -75 -125 -41 -67 -75 -124
-75 -127 0 -3 -8 -18 -19 -32 -10 -15 -35 -58 -55 -97 -21 -38 -53 -99 -72
-135 -63 -115 -188 -365 -190 -380 -2 -8 -8 -16 -13 -18 -6 -2 -11 -11 -11
-21 0 -9 -4 -21 -9 -27 -12 -12 -151 -320 -151 -333 0 -6 -4 -11 -10 -11 -5 0
-10 -11 -10 -25 0 -14 -4 -25 -10 -25 -5 0 -10 -6 -10 -13 0 -7 -9 -32 -20
-55 -18 -37 -40 -87 -45 -102 -4 -12 -26 -63 -44 -103 -10 -23 -63 -150 -116
-282 -53 -132 -103 -254 -111 -272 -8 -17 -14 -37 -14 -45 0 -8 -4 -18 -8 -23
-7 -8 -43 -94 -48 -115 0 -3 -4 -14 -9 -25 -15 -38 -73 -190 -91 -240 -9 -27
-22 -56 -27 -62 -5 -7 -7 -13 -4 -13 3 0 -2 -19 -12 -42 -23 -55 -33 -80 -37
-93 -4 -17 -74 -209 -83 -230 -5 -11 -20 -50 -33 -87 -12 -38 -25 -68 -28 -68
-3 0 -6 15 -7 33 0 17 -4 82 -8 142 -3 61 -8 151 -9 201 -2 50 -6 96 -10 103
-4 6 -3 11 2 11 9 0 8 47 -1 56 -3 3 -1 21 3 40 4 18 5 34 1 34 -3 0 -6 143
-5 318 1 174 3 317 3 317 1 0 4 81 7 180 3 99 7 212 9 250 3 39 7 120 9 180 3
61 8 133 11 160 5 48 9 108 20 275 3 41 8 102 11 135 3 33 7 80 9 105 1 25 3
45 4 45 1 0 4 27 6 60 5 68 15 168 20 205 4 23 12 110 20 215 2 22 4 40 5 40
1 0 3 16 5 35 5 66 16 172 20 203 3 18 9 73 15 122 6 50 13 101 15 115 2 14 7
54 11 90 10 103 12 115 14 115 1 0 3 16 4 35 2 19 6 64 11 100 4 36 9 74 10
85 3 33 16 138 21 165 2 14 7 49 10 79 3 30 8 64 10 75 3 12 7 47 9 79 3 32 8
72 11 90 45 231 -149 430 -376 386z"/>
</g>
</svg>
